HIERARCHY
ROOT Hips
{
	OFFSET 0.000000 35.082581 0.000000
	CHANNELS 6 Xposition Yposition Zposition Xrotation Yrotation Zrotation 
	JOINT Spine
	{
		OFFSET 0.000000 6.876099 0.125700
		CHANNELS 3 Xrotation Yrotation Zrotation
		JOINT Spine1
		{
			OFFSET 0.000000 5.730043 0.104720
			CHANNELS 3 Xrotation Yrotation Zrotation
			JOINT Spine1_split
			{
				OFFSET 0.000000 5.730043 0.104720
				CHANNELS 3 Xrotation Yrotation Zrotation
				JOINT Spine2
				{
					OFFSET 0.000000 5.730043 0.104720
					CHANNELS 3 Xrotation Yrotation Zrotation
					JOINT Neck
					{
						OFFSET 0.000000 10.314075 0.188496
						CHANNELS 3 Xrotation Yrotation Zrotation
						JOINT Head
						{
							OFFSET 0.000000 7.643700 -2.377400
							CHANNELS 3 Xrotation Yrotation Zrotation
							JOINT HeadTop_End
							{
								OFFSET 0.000000 43.788605 -13.619600
								CHANNELS 3 Xrotation Yrotation Zrotation
								End Site
								{
									OFFSET 0.000000 0.000000 0.000000
								}
							}
						}
					}
					JOINT LeftShoulder
					{
						OFFSET 2.196100 4.412489 0.087492
						CHANNELS 3 Xrotation Yrotation Zrotation
						JOINT LeftShoulder_split
						{
							OFFSET 2.196100 4.412489 0.087492
							CHANNELS 3 Xrotation Yrotation Zrotation
							JOINT LeftArm
							{
								OFFSET 8.771219 -2.981674 -0.026999
								CHANNELS 3 Xrotation Yrotation Zrotation
								JOINT LeftForeArm
								{
									OFFSET 8.512804 0.000000 -0.000000
									CHANNELS 3 Xrotation Yrotation Zrotation
									JOINT LeftHand
									{
										OFFSET 18.484802 0.000000 -0.000000
										CHANNELS 3 Xrotation Yrotation Zrotation
										JOINT LeftHandThumb1
										{
											OFFSET 2.499420 -1.158070 2.653252
											CHANNELS 3 Xrotation Yrotation Zrotation
											JOINT LeftHandThumb2
											{
												OFFSET 2.370079 -1.368366 1.368366
												CHANNELS 3 Xrotation Yrotation Zrotation
												JOINT LeftHandThumb3
												{
													OFFSET 2.676727 -1.545410 1.545409
													CHANNELS 3 Xrotation Yrotation Zrotation
													JOINT LeftHandThumb4
													{
														OFFSET 1.692226 -0.977005 0.977007
														CHANNELS 3 Xrotation Yrotation Zrotation
														End Site
														{
															OFFSET 0.000000 0.000000 0.000000
														}
													}
												}
											}
										}
										JOINT LeftHandIndex1
										{
											OFFSET 7.924831 -0.457527 2.345128
											CHANNELS 3 Xrotation Yrotation Zrotation
											JOINT LeftHandIndex2
											{
												OFFSET 3.643303 0.000000 0.000000
												CHANNELS 3 Xrotation Yrotation Zrotation
												JOINT LeftHandIndex3
												{
													OFFSET 3.810799 0.000000 0.000000
													CHANNELS 3 Xrotation Yrotation Zrotation
													JOINT LeftHandIndex4
													{
														OFFSET 2.403702 0.000000 0.000000
														CHANNELS 3 Xrotation Yrotation Zrotation
														End Site
														{
															OFFSET 0.000000 0.000000 0.000000
														}
													}
												}
											}
										}
										JOINT LeftHandMiddle1
										{
											OFFSET 8.563995 0.000000 -0.000000
											CHANNELS 3 Xrotation Yrotation Zrotation
											JOINT LeftHandMiddle2
											{
												OFFSET 3.861618 0.000000 0.000000
												CHANNELS 3 Xrotation Yrotation Zrotation
												JOINT LeftHandMiddle3
												{
													OFFSET 3.701603 0.000000 0.000000
													CHANNELS 3 Xrotation Yrotation Zrotation
													JOINT LeftHandMiddle4
													{
														OFFSET 2.322544 0.000000 0.000000
														CHANNELS 3 Xrotation Yrotation Zrotation
														End Site
														{
															OFFSET 0.000000 0.000000 0.000000
														}
													}
												}
											}
										}
										JOINT LeftHandRing1
										{
											OFFSET 8.426460 -0.424637 -3.286992
											CHANNELS 3 Xrotation Yrotation Zrotation
											JOINT LeftHandRing2
											{
												OFFSET 3.126408 0.000000 0.000000
												CHANNELS 3 Xrotation Yrotation Zrotation
												JOINT LeftHandRing3
												{
													OFFSET 3.085026 0.000000 0.000000
													CHANNELS 3 Xrotation Yrotation Zrotation
													JOINT LeftHandRing4
													{
														OFFSET 1.644005 0.000000 0.000000
														CHANNELS 3 Xrotation Yrotation Zrotation
														End Site
														{
															OFFSET 0.000000 0.000000 0.000000
														}
													}
												}
											}
										}
									}
								}
							}
						}
					}
					JOINT RightShoulder
					{
						OFFSET -2.196100 4.412496 0.070690
						CHANNELS 3 Xrotation Yrotation Zrotation
						JOINT RightShoulder_split
						{
							OFFSET -2.196100 4.412496 0.070690
							CHANNELS 3 Xrotation Yrotation Zrotation
							JOINT RightArm
							{
								OFFSET -8.771282 -2.981682 -0.094208
								CHANNELS 3 Xrotation Yrotation Zrotation
								JOINT RightForeArm
								{
									OFFSET -8.494598 0.000000 0.000000
									CHANNELS 3 Xrotation Yrotation Zrotation
									JOINT RightHand
									{
										OFFSET -18.483803 0.000000 0.000001
										CHANNELS 3 Xrotation Yrotation Zrotation
										JOINT RightHandThumb1
										{
											OFFSET -2.527351 -1.008072 2.575253
											CHANNELS 3 Xrotation Yrotation Zrotation
											JOINT RightHandThumb2
											{
												OFFSET -2.321518 -1.340328 1.340329
												CHANNELS 3 Xrotation Yrotation Zrotation
												JOINT RightHandThumb3
												{
													OFFSET -2.657753 -1.534454 1.534455
													CHANNELS 3 Xrotation Yrotation Zrotation
													JOINT RightHandThumb4
													{
														OFFSET -1.807510 -1.043568 1.043567
														CHANNELS 3 Xrotation Yrotation Zrotation
														End Site
														{
															OFFSET 0.000000 0.000000 0.000000
														}
													}
												}
											}
										}
										JOINT RightHandIndex1
										{
											OFFSET -8.811420 0.015533 2.887987
											CHANNELS 3 Xrotation Yrotation Zrotation
											JOINT RightHandIndex2
											{
												OFFSET -3.537502 0.000000 0.000000
												CHANNELS 3 Xrotation Yrotation Zrotation
												JOINT RightHandIndex3
												{
													OFFSET -3.356201 0.000000 0.000000
													CHANNELS 3 Xrotation Yrotation Zrotation
													JOINT RightHandIndex4
													{
														OFFSET -1.933098 0.000000 0.000000
														CHANNELS 3 Xrotation Yrotation Zrotation
														End Site
														{
															OFFSET 0.000000 0.000000 0.000000
														}
													}
												}
											}
										}
										JOINT RightHandMiddle1
										{
											OFFSET -8.178135 0.000000 0.000000
											CHANNELS 3 Xrotation Yrotation Zrotation
											JOINT RightHandMiddle2
											{
												OFFSET -3.901302 0.000000 0.000000
												CHANNELS 3 Xrotation Yrotation Zrotation
												JOINT RightHandMiddle3
												{
													OFFSET -3.909599 0.000000 0.000000
													CHANNELS 3 Xrotation Yrotation Zrotation
													JOINT RightHandMiddle4
													{
														OFFSET -2.376003 0.000000 0.000000
														CHANNELS 3 Xrotation Yrotation Zrotation
														End Site
														{
															OFFSET 0.000000 0.000000 0.000000
														}
													}
												}
											}
										}
										JOINT RightHandRing1
										{
											OFFSET -7.559013 0.014137 -2.865403
											CHANNELS 3 Xrotation Yrotation Zrotation
											JOINT RightHandRing2
											{
												OFFSET -3.449306 0.000000 0.000000
												CHANNELS 3 Xrotation Yrotation Zrotation
												JOINT RightHandRing3
												{
													OFFSET -3.362106 0.000000 0.000000
													CHANNELS 3 Xrotation Yrotation Zrotation
													JOINT RightHandRing4
													{
														OFFSET -2.076401 0.000000 0.000000
														CHANNELS 3 Xrotation Yrotation Zrotation
														End Site
														{
															OFFSET 0.000000 0.000000 0.000000
														}
													}
												}
											}
										}
									}
								}
							}
						}
					}
				}
			}
		}
	}
	JOINT LeftUpLeg
	{
		OFFSET 10.205400 -3.823500 0.155100
		CHANNELS 3 Xrotation Yrotation Zrotation
		JOINT LeftLeg
		{
			OFFSET 0.708757 -12.982077 0.567790
			CHANNELS 3 Xrotation Yrotation Zrotation
			JOINT LeftFoot
			{
				OFFSET -0.708756 -10.717838 -2.184338
				CHANNELS 3 Xrotation Yrotation Zrotation
				JOINT LeftToeBase
				{
					OFFSET 0.108149 -7.191104 7.560241
					CHANNELS 3 Xrotation Yrotation Zrotation
					JOINT LeftToe_End
					{
						OFFSET 0.070230 0.081724 4.490308
						CHANNELS 3 Xrotation Yrotation Zrotation
						End Site
						{
							OFFSET 0.000000 0.000000 0.000000
						}
					}
				}
			}
		}
	}
	JOINT RightUpLeg
	{
		OFFSET -10.205400 -3.823500 0.005500
		CHANNELS 3 Xrotation Yrotation Zrotation
		JOINT RightLeg
		{
			OFFSET -0.708756 -12.982134 0.610632
			CHANNELS 3 Xrotation Yrotation Zrotation
			JOINT RightFoot
			{
				OFFSET 0.708754 -10.717769 -1.945823
				CHANNELS 3 Xrotation Yrotation Zrotation
				JOINT RightToeBase
				{
					OFFSET -0.108140 -7.191069 7.372968
					CHANNELS 3 Xrotation Yrotation Zrotation
					JOINT RightToe_End
					{
						OFFSET -0.070227 0.081735 4.479403
						CHANNELS 3 Xrotation Yrotation Zrotation
						End Site
						{
							OFFSET 0.000000 0.000000 0.000000
						}
					}
				}
			}
		}
	}
}
MOTION
Frames: 6
Frame Time: 0.016667
2.502809 33.933929 -0.379218 0.020979 -14.035243 -2.065186 1.258735 -1.035738 -2.100434 0.247988 -0.899450 -0.732541 0.000000 0.000000 0.000000 0.243784 -0.917159 -0.703880 0.749591 2.295820 1.468098 -1.250654 13.693912 -1.535070 -0.000000 -0.000000 -0.000000 -1.488743 9.670788 -3.001480 0.000000 0.000000 0.000000 40.860490 -60.704850 -25.987203 0.000010 -22.817335 0.000007 -25.332871 2.522416 11.628356 -3.405767 19.076278 14.453271 15.249466 14.620672 -5.800673 4.892158 5.223022 0.075644 -0.000001 0.000000 0.000001 0.380311 2.260832 -19.095162 0.158430 1.471497 -12.290078 0.039715 0.739998 -6.144025 0.000001 -0.000001 -0.000001 0.379674 2.259004 -19.079152 0.158841 1.473385 -12.306094 0.039722 0.740007 -6.144029 0.000004 -0.000000 -0.000001 0.380301 2.260833 -19.095162 0.158440 1.471494 -12.290078 0.039727 0.740002 -6.144029 -0.000001 0.000001 0.000001 4.389552 5.095587 -14.946390 0.000000 0.000000 0.000000 -41.397852 -19.780020 36.650843 -0.000017 107.697699 -0.000002 -54.775313 -10.060523 16.832127 -38.571871 8.421451 28.523249 20.647223 -5.709676 -0.778457 6.673641 1.573242 -3.478657 0.000001 -0.000000 0.000001 6.266107 -6.914827 84.352344 5.176786 -6.719693 75.194768 1.436814 -4.237647 37.445365 0.000003 -0.000000 0.000000 6.266118 -6.914821 84.352344 5.176795 -6.719704 75.194796 1.436820 -4.237652 37.445348 -0.000002 0.000000 0.000000 6.266135 -6.914822 84.352358 5.176799 -6.719682 75.194796 1.436817 -4.237644 37.445341 -0.000003 -0.000000 -0.000001 -9.179769 21.606731 10.292413 30.812817 7.838698 4.732327 -20.055838 11.275828 -12.512668 -0.000001 -0.000010 0.000003 -0.000000 0.000000 0.000000 -19.006702 -17.001169 -12.532486 18.888524 10.292092 -2.716420 -2.765750 7.361020 10.987462 0.000014 -0.000004 0.000000 0.000000 -0.000000 -0.000000 
2.451066 33.936913 -0.378124 0.035911 -13.848467 -2.068196 1.261741 -1.023138 -2.017315 0.244307 -0.890375 -0.689610 0.000000 0.000000 0.000000 0.239953 -0.906842 -0.661084 0.708956 2.285039 1.414968 -1.291729 13.566501 -1.516494 -0.000000 -0.000000 -0.000001 -1.481849 9.673266 -3.066371 0.000000 0.000000 0.000000 40.859643 -60.864601 -25.969274 -0.000012 -22.750774 0.000025 -25.272323 2.521553 11.564784 -3.405761 19.076274 14.453273 15.249470 14.620676 -5.800676 4.892154 5.223026 0.075646 0.000002 0.000000 0.000001 0.380317 2.260832 -19.095165 0.158437 1.471497 -12.290078 0.039714 0.739999 -6.144024 0.000000 0.000001 0.000000 0.379678 2.259005 -19.079153 0.158843 1.473383 -12.306094 0.039725 0.740007 -6.144031 0.000000 0.000002 0.000001 0.380306 2.260832 -19.095158 0.158442 1.471496 -12.290082 0.039720 0.740002 -6.144029 -0.000002 -0.000000 0.000000 4.393050 5.145390 -14.614272 0.000000 0.000000 0.000000 -40.060033 -18.545342 36.976923 -0.000001 107.194143 -0.000041 -53.879449 -10.236988 17.000783 -38.575474 8.422888 28.525134 25.307313 -7.950557 -1.561542 8.978155 0.451544 -4.203937 0.000003 -0.000000 0.000001 5.616220 -6.819964 78.921135 4.647628 -6.558062 70.620044 1.273555 -4.016035 35.176799 0.000001 -0.000000 -0.000000 5.616218 -6.819963 78.921142 4.647624 -6.558069 70.620051 1.273541 -4.016034 35.176799 -0.000001 0.000002 -0.000000 5.616229 -6.819958 78.921156 4.647618 -6.558051 70.620065 1.273542 -4.016040 35.176803 0.000001 -0.000002 0.000000 -9.299870 21.518432 10.451513 30.817284 7.823189 4.706392 -19.946495 11.175091 -12.594526 -0.000005 -0.000008 0.000001 0.000000 0.000002 0.000000 -18.873918 -16.902703 -12.480024 19.026583 10.310875 -2.544210 -2.960335 7.033428 10.799700 -0.000002 -0.000005 0.000002 0.000000 -0.000001 0.000000 
2.398051 33.940197 -0.377336 0.044887 -13.663570 -2.076526 1.266775 -1.014841 -1.935103 0.241808 -0.884492 -0.647218 0.000000 0.000000 0.000000 0.237301 -0.899707 -0.618706 0.663438 2.273468 1.368831 -1.324470 13.444068 -1.498672 -0.000000 0.000000 -0.000000 -1.475809 9.676770 -3.126249 0.000000 0.000000 0.000000 40.863471 -61.027672 -25.944146 0.000002 -22.683934 0.000024 -25.239994 2.530282 11.484746 -3.405763 19.076278 14.453278 15.249471 14.620672 -5.800676 4.892158 5.223020 0.075642 -0.000002 -0.000001 -0.000002 0.380318 2.260829 -19.095163 0.158430 1.471498 -12.290078 0.039713 0.739999 -6.144025 0.000001 0.000000 0.000000 0.379674 2.259007 -19.079150 0.158844 1.473380 -12.306093 0.039721 0.740006 -6.144028 0.000002 0.000002 0.000002 0.380307 2.260832 -19.095162 0.158443 1.471493 -12.290077 0.039724 0.740001 -6.144028 0.000003 -0.000001 0.000000 4.393937 5.191689 -14.254576 0.000000 0.000000 0.000000 -38.714776 -17.278394 37.271888 -0.000003 106.679639 -0.000040 -53.035319 -10.392684 17.074708 -38.565625 8.419018 28.520030 29.758185 -10.003533 -1.882583 11.181015 -0.630446 -4.665756 0.000000 0.000005 0.000002 4.775633 -6.601394 71.737067 4.103755 -6.341910 65.781443 1.110481 -3.774643 32.777012 0.000002 0.000000 -0.000000 4.775636 -6.601393 71.737067 4.103761 -6.341928 65.781443 1.110484 -3.774641 32.777012 -0.000001 0.000003 0.000001 4.775645 -6.601391 71.737081 4.103761 -6.341902 65.781443 1.110476 -3.774635 32.776995 0.000002 -0.000001 -0.000000 -9.413516 21.417223 10.624455 30.822455 7.805401 4.663508 -19.837374 11.075474 -12.673024 -0.000002 -0.000007 0.000002 0.000000 0.000001 -0.000000 -18.730026 -16.821936 -12.404394 19.153799 10.327309 -2.405631 -3.151613 6.719249 10.624167 0.000015 0.000001 0.000004 0.000000 0.000001 -0.000000 
2.344054 33.943867 -0.377097 0.043337 -13.480739 -2.091483 1.273579 -1.011067 -1.854959 0.240359 -0.881936 -0.605871 0.000000 0.000000 0.000000 0.235707 -0.895953 -0.577244 0.611920 2.260312 1.331698 -1.350457 13.324899 -1.480446 0.000000 0.000000 0.000000 -1.470853 9.679987 -3.176228 0.000000 0.000000 0.000000 40.866162 -61.194882 -25.918645 -0.000000 -22.613879 -0.000010 -25.231050 2.553765 11.386502 -3.405763 19.076274 14.453273 15.249466 14.620676 -5.800673 4.892160 5.223022 0.075646 -0.000003 0.000002 0.000000 0.380311 2.260834 -19.095163 0.158429 1.471499 -12.290079 0.039720 0.739998 -6.144026 0.000001 -0.000001 -0.000001 0.379678 2.259005 -19.079153 0.158843 1.473385 -12.306092 0.039720 0.740009 -6.144027 0.000001 0.000001 -0.000000 0.380307 2.260832 -19.095162 0.158435 1.471496 -12.290078 0.039723 0.740004 -6.144027 0.000001 -0.000001 -0.000000 4.391629 5.233458 -13.862305 0.000000 0.000000 0.000000 -37.354991 -15.971200 37.525940 -0.000021 106.153461 -0.000018 -52.233633 -10.519518 17.034886 -38.310384 8.317421 28.387253 33.606033 -11.676528 -1.838680 13.081523 -1.576550 -4.879218 0.000002 -0.000002 -0.000000 3.866138 -6.230248 63.611492 3.573350 -6.077071 60.880679 0.955711 -3.523185 30.345468 0.000003 -0.000001 -0.000002 3.866139 -6.230250 63.611492 3.573355 -6.077090 60.880673 0.955705 -3.523191 30.345482 -0.000002 0.000001 0.000000 3.866136 -6.230250 63.611492 3.573363 -6.077072 60.880693 0.955707 -3.523189 30.345462 0.000001 0.000001 -0.000001 -9.519542 21.305670 10.807658 30.829777 7.786267 4.616874 -19.725147 10.975436 -12.755455 -0.000005 -0.000012 0.000002 0.000000 0.000001 0.000000 -18.566759 -16.747458 -12.306459 19.266260 10.341776 -2.291585 -3.337075 6.408336 10.457886 0.000013 0.000003 -0.000000 0.000000 -0.000000 -0.000000 
2.289317 33.948059 -0.377518 0.029487 -13.297882 -2.111765 1.281839 -1.011807 -1.777752 0.239822 -0.882721 -0.566064 0.000000 0.000000 0.000000 0.235035 -0.895541 -0.537205 0.553540 2.244815 1.305166 -1.371440 13.207170 -1.460608 -0.000000 0.000000 -0.000000 -1.467159 9.681592 -3.211858 0.000000 0.000000 0.000000 40.861371 -61.366702 -25.900158 0.000008 -22.538069 0.000012 -25.238848 2.596155 11.269153 -3.405768 19.076274 14.453276 15.249470 14.620676 -5.800674 4.892157 5.223026 0.075644 -0.000001 0.000001 -0.000000 0.380314 2.260831 -19.095165 0.158431 1.471499 -12.290078 0.039720 0.739998 -6.144025 -0.000001 -0.000002 -0.000000 0.379675 2.259005 -19.079155 0.158842 1.473383 -12.306095 0.039725 0.740008 -6.144028 0.000001 -0.000000 0.000000 0.380304 2.260831 -19.095160 0.158440 1.471495 -12.290081 0.039721 0.740004 -6.144027 0.000005 -0.000001 -0.000001 4.385650 5.270031 -13.433554 0.000000 0.000000 0.000000 -35.974002 -14.618147 37.730416 -0.000058 105.613753 0.000021 -51.461985 -10.612325 16.868718 -37.617984 8.036569 28.030301 36.433906 -12.831567 -1.627877 14.474805 -2.279672 -4.924797 -0.000003 -0.000001 0.000003 3.005875 -5.726021 55.365633 3.081427 -5.777217 56.119720 0.815622 -3.272589 27.982119 -0.000001 0.000002 0.000001 3.005875 -5.726022 55.365626 3.081430 -5.777230 56.119730 0.815619 -3.272587 27.982122 -0.000003 0.000001 -0.000002 3.005861 -5.726019 55.365640 3.081441 -5.777237 56.119737 0.815617 -3.272594 27.982109 -0.000000 0.000003 -0.000001 -9.614427 21.183343 10.992522 30.833342 7.767451 4.577846 -19.605353 10.875878 -12.846612 -0.000004 -0.000007 0.000004 0.000000 0.000003 0.000000 -18.381342 -16.671991 -12.194052 19.362417 10.355307 -2.187595 -3.514808 6.094185 10.294570 0.000007 0.000004 0.000002 0.000000 -0.000001 -0.000000 
2.233885 33.952736 -0.378527 0.005823 -13.110668 -2.133396 1.291196 -1.016912 -1.704017 0.240021 -0.886619 -0.528224 0.000000 0.000000 0.000000 0.235126 -0.898340 -0.499011 0.487742 2.226389 1.290289 -1.389264 13.089045 -1.437876 -0.000000 -0.000000 0.000000 -1.464795 9.680253 -3.229580 0.000000 0.000000 0.000000 40.843015 -61.543064 -25.895525 -0.000017 -22.454334 0.000003 -25.255178 2.660016 11.132636 -3.405765 19.076274 14.453276 15.249470 14.620672 -5.800676 4.892157 5.223028 0.075644 -0.000004 -0.000002 -0.000004 0.380314 2.260830 -19.095162 0.158431 1.471497 -12.290076 0.039715 0.740000 -6.144023 0.000002 0.000000 0.000000 0.379676 2.259004 -19.079152 0.158841 1.473382 -12.306093 0.039724 0.740007 -6.144029 0.000001 -0.000001 -0.000001 0.380305 2.260832 -19.095160 0.158441 1.471497 -12.290078 0.039727 0.740003 -6.144028 0.000001 -0.000000 -0.000000 4.375742 5.300991 -12.965828 0.000000 0.000000 0.000000 -34.566249 -13.216442 37.878624 0.000002 105.057441 -0.000037 -50.705873 -10.669344 16.570621 -36.541655 7.583955 27.486476 37.719668 -13.332639 -1.488637 15.107455 -2.600863 -4.916129 0.000002 0.000001 -0.000002 2.288133 -5.159479 47.809825 2.648214 -5.462948 51.698282 0.694772 -3.034617 25.785981 -0.000000 0.000001 -0.000004 2.288135 -5.159472 47.809825 2.648214 -5.462956 51.698279 0.694774 -3.034613 25.785969 0.000001 0.000003 -0.000000 2.288133 -5.159478 47.809828 2.648224 -5.462957 51.698279 0.694772 -3.034611 25.785967 -0.000002 -0.000000 0.000001 -9.697616 21.045227 11.168465 30.827287 7.750600 4.553127 -19.474587 10.779965 -12.947122 0.000001 -0.000006 0.000004 0.000000 -0.000001 0.000000 -18.179153 -16.594686 -12.079607 19.448578 10.369066 -2.079989 -3.690375 5.775215 10.128014 0.000001 -0.000009 0.000003 0.000000 -0.000000 0.000000 
